<svg xmlns="http://www.w3.org/2000/svg" xmlns:xlink="http://www.w3.org/1999/xlink" width="500" zoomAndPan="magnify" viewBox="0 0 375 374.999991" height="500" preserveAspectRatio="xMidYMid meet" version="1.0"><defs><clipPath id="4e7be188d1"><path d="M 135 54 L 230 54 L 230 149 L 135 149 Z M 135 54 " clip-rule="nonzero"/></clipPath><clipPath id="567577bc5b"><path d="M 155.65625 148.390625 L 135.773438 128.507812 L 209.476562 54.808594 L 229.359375 74.691406 Z M 155.65625 148.390625 " clip-rule="nonzero"/></clipPath><clipPath id="2dcb26ae19"><path d="M 0.761719 0.640625 L 94.359375 0.640625 L 94.359375 94.480469 L 0.761719 94.480469 Z M 0.761719 0.640625 " clip-rule="nonzero"/></clipPath><clipPath id="9bbb2fed2f"><path d="M 20.65625 94.390625 L 0.773438 74.507812 L 74.476562 0.808594 L 94.359375 20.691406 Z M 20.65625 94.390625 " clip-rule="nonzero"/></clipPath><clipPath id="a3e3aea42b"><rect x="0" width="95" y="0" height="95"/></clipPath><clipPath id="23b8d508e3"><path d="M 108 27 L 203 27 L 203 122 L 108 122 Z M 108 27 " clip-rule="nonzero"/></clipPath><clipPath id="30eeab0e7e"><path d="M 128.671875 121.402344 L 108.789062 101.519531 L 182.488281 27.820312 L 202.371094 47.703125 Z M 128.671875 121.402344 " clip-rule="nonzero"/></clipPath><clipPath id="f1006656e6"><path d="M 0.640625 0.761719 L 94.480469 0.761719 L 94.480469 94.601562 L 0.640625 94.601562 Z M 0.640625 0.761719 " clip-rule="nonzero"/></clipPath><clipPath id="7f7e8f00bb"><path d="M 20.671875 94.402344 L 0.789062 74.519531 L 74.488281 0.820312 L 94.371094 20.703125 Z M 20.671875 94.402344 " clip-rule="nonzero"/></clipPath><clipPath id="2047721822"><rect x="0" width="95" y="0" height="95"/></clipPath><clipPath id="9c59fbbb23"><path d="M 81 0.640625 L 176 0.640625 L 176 95 L 81 95 Z M 81 0.640625 " clip-rule="nonzero"/></clipPath><clipPath id="3b440671cd"><path d="M 101.683594 94.417969 L 81.800781 74.535156 L 155.5 0.832031 L 175.382812 20.714844 Z M 101.683594 94.417969 " clip-rule="nonzero"/></clipPath><clipPath id="54c95e67ed"><path d="M 0.761719 0.640625 L 94.601562 0.640625 L 94.601562 94.480469 L 0.761719 94.480469 Z M 0.761719 0.640625 " clip-rule="nonzero"/></clipPath><clipPath id="dc6c91e06d"><path d="M 20.683594 94.417969 L 0.800781 74.535156 L 74.5 0.832031 L 94.382812 20.714844 Z M 20.683594 94.417969 " clip-rule="nonzero"/></clipPath><clipPath id="f30e47305d"><rect x="0" width="95" y="0" height="95"/></clipPath><clipPath id="a601c8afdb"><path d="M 135 216 L 230 216 L 230 310.238281 L 135 310.238281 Z M 135 216 " clip-rule="nonzero"/></clipPath><clipPath id="05a0ddad6a"><path d="M 155.5 310.15625 L 135.617188 290.273438 L 209.320312 216.574219 L 229.203125 236.457031 Z M 155.5 310.15625 " clip-rule="nonzero"/></clipPath><clipPath id="3636996e8f"><path d="M 0.519531 0.398438 L 94.359375 0.398438 L 94.359375 94.238281 L 0.519531 94.238281 Z M 0.519531 0.398438 " clip-rule="nonzero"/></clipPath><clipPath id="faca1c2863"><path d="M 20.5 94.15625 L 0.617188 74.273438 L 74.320312 0.574219 L 94.203125 20.457031 Z M 20.5 94.15625 " clip-rule="nonzero"/></clipPath><clipPath id="b67c65f658"><rect x="0" width="95" y="0" height="95"/></clipPath><clipPath id="4df00eae3b"><path d="M 108 189 L 203 189 L 203 284 L 108 284 Z M 108 189 " clip-rule="nonzero"/></clipPath><clipPath id="9fe9ad1b3b"><path d="M 128.515625 283.171875 L 108.628906 263.289062 L 182.332031 189.585938 L 202.214844 209.46875 Z M 128.515625 283.171875 " clip-rule="nonzero"/></clipPath><clipPath id="c706592d48"><path d="M 0.398438 0.519531 L 94.238281 0.519531 L 94.238281 94.359375 L 0.398438 94.359375 Z M 0.398438 0.519531 " clip-rule="nonzero"/></clipPath><clipPath id="ad43b1b440"><path d="M 20.515625 94.171875 L 0.628906 74.289062 L 74.332031 0.585938 L 94.214844 20.46875 Z M 20.515625 94.171875 " clip-rule="nonzero"/></clipPath><clipPath id="aa50261a61"><rect x="0" width="95" y="0" height="95"/></clipPath><clipPath id="05a8974511"><path d="M 81 162 L 176 162 L 176 257 L 81 257 Z M 81 162 " clip-rule="nonzero"/></clipPath><clipPath id="4521a9d16d"><path d="M 101.527344 256.183594 L 81.644531 236.300781 L 155.34375 162.597656 L 175.226562 182.484375 Z M 101.527344 256.183594 " clip-rule="nonzero"/></clipPath><clipPath id="144bbec6e5"><path d="M 0.519531 0.398438 L 94.359375 0.398438 L 94.359375 94.238281 L 0.519531 94.238281 Z M 0.519531 0.398438 " clip-rule="nonzero"/></clipPath><clipPath id="1aec13b51c"><path d="M 20.527344 94.183594 L 0.644531 74.300781 L 74.34375 0.597656 L 94.226562 20.484375 Z M 20.527344 94.183594 " clip-rule="nonzero"/></clipPath><clipPath id="2170d360df"><rect x="0" width="95" y="0" height="95"/></clipPath><clipPath id="8326dc2696"><path d="M 162 135 L 257 135 L 257 230 L 162 230 Z M 162 135 " clip-rule="nonzero"/></clipPath><clipPath id="22fecbb9f1"><path d="M 162.605469 155.660156 L 182.488281 135.777344 L 256.191406 209.476562 L 236.304688 229.363281 Z M 162.605469 155.660156 " clip-rule="nonzero"/></clipPath><clipPath id="358c0028e3"><path d="M 0.398438 0.761719 L 94.238281 0.761719 L 94.238281 94.601562 L 0.398438 94.601562 Z M 0.398438 0.761719 " clip-rule="nonzero"/></clipPath><clipPath id="c4f44cf626"><path d="M 0.605469 20.660156 L 20.488281 0.777344 L 94.191406 74.476562 L 74.304688 94.363281 Z M 0.605469 20.660156 " clip-rule="nonzero"/></clipPath><clipPath id="e33d303062"><rect x="0" width="95" y="0" height="95"/></clipPath><clipPath id="bac81f3507"><path d="M 189 108 L 284 108 L 284 203 L 189 203 Z M 189 108 " clip-rule="nonzero"/></clipPath><clipPath id="86d8c03ff7"><path d="M 189.59375 128.671875 L 209.476562 108.789062 L 283.175781 182.492188 L 263.292969 202.375 Z M 189.59375 128.671875 " clip-rule="nonzero"/></clipPath><clipPath id="b8b0d1bc42"><path d="M 0.519531 0.640625 L 94.359375 0.640625 L 94.359375 94.480469 L 0.519531 94.480469 Z M 0.519531 0.640625 " clip-rule="nonzero"/></clipPath><clipPath id="803bf09696"><path d="M 0.59375 20.671875 L 20.476562 0.789062 L 94.175781 74.492188 L 74.292969 94.375 Z M 0.59375 20.671875 " clip-rule="nonzero"/></clipPath><clipPath id="fd21bb80d0"><rect x="0" width="95" y="0" height="95"/></clipPath><clipPath id="7609b0a87d"><path d="M 216 81 L 310.238281 81 L 310.238281 176 L 216 176 Z M 216 81 " clip-rule="nonzero"/></clipPath><clipPath id="17dc2ba958"><path d="M 216.582031 101.6875 L 236.464844 81.804688 L 310.164062 155.503906 L 290.28125 175.386719 Z M 216.582031 101.6875 " clip-rule="nonzero"/></clipPath><clipPath id="87e867308f"><path d="M 0.398438 0.761719 L 94.238281 0.761719 L 94.238281 94.601562 L 0.398438 94.601562 Z M 0.398438 0.761719 " clip-rule="nonzero"/></clipPath><clipPath id="97307bb090"><path d="M 0.582031 20.6875 L 20.464844 0.804688 L 94.164062 74.503906 L 74.28125 94.386719 Z M 0.582031 20.6875 " clip-rule="nonzero"/></clipPath><clipPath id="8a92d2ec74"><rect x="0" width="95" y="0" height="95"/></clipPath><clipPath id="67b9b527c2"><path d="M 0.640625 135 L 95 135 L 95 230 L 0.640625 230 Z M 0.640625 135 " clip-rule="nonzero"/></clipPath><clipPath id="0f55a4ff32"><path d="M 0.839844 155.503906 L 20.722656 135.621094 L 94.421875 209.320312 L 74.539062 229.203125 Z M 0.839844 155.503906 " clip-rule="nonzero"/></clipPath><clipPath id="44b3d9aa6d"><path d="M 0.640625 0.519531 L 94.480469 0.519531 L 94.480469 94.359375 L 0.640625 94.359375 Z M 0.640625 0.519531 " clip-rule="nonzero"/></clipPath><clipPath id="5a73634b27"><path d="M 0.839844 20.503906 L 20.722656 0.621094 L 94.421875 74.320312 L 74.539062 94.203125 Z M 0.839844 20.503906 " clip-rule="nonzero"/></clipPath><clipPath id="033c13318a"><rect x="0" width="95" y="0" height="95"/></clipPath><clipPath id="12a0ae96d4"><path d="M 27 108 L 122 108 L 122 203 L 27 203 Z M 27 108 " clip-rule="nonzero"/></clipPath><clipPath id="9ca32e7338"><path d="M 27.828125 128.515625 L 47.710938 108.632812 L 121.410156 182.332031 L 101.527344 202.21875 Z M 27.828125 128.515625 " clip-rule="nonzero"/></clipPath><clipPath id="3fe598bf52"><path d="M 0.761719 0.398438 L 94.601562 0.398438 L 94.601562 94.238281 L 0.761719 94.238281 Z M 0.761719 0.398438 " clip-rule="nonzero"/></clipPath><clipPath id="03842c8913"><path d="M 0.828125 20.515625 L 20.710938 0.632812 L 94.410156 74.332031 L 74.527344 94.21875 Z M 0.828125 20.515625 " clip-rule="nonzero"/></clipPath><clipPath id="dc9c39b459"><rect x="0" width="95" y="0" height="95"/></clipPath><clipPath id="63b478c604"><path d="M 54 81 L 149 81 L 149 176 L 54 176 Z M 54 81 " clip-rule="nonzero"/></clipPath><clipPath id="2dc7fe7ae2"><path d="M 54.8125 101.527344 L 74.695312 81.644531 L 148.398438 155.347656 L 128.515625 175.230469 Z M 54.8125 101.527344 " clip-rule="nonzero"/></clipPath><clipPath id="dd30e7b4f9"><path d="M 0.640625 0.519531 L 94.480469 0.519531 L 94.480469 94.359375 L 0.640625 94.359375 Z M 0.640625 0.519531 " clip-rule="nonzero"/></clipPath><clipPath id="df990d8069"><path d="M 0.8125 20.527344 L 20.695312 0.644531 L 94.398438 74.347656 L 74.515625 94.230469 Z M 0.8125 20.527344 " clip-rule="nonzero"/></clipPath><clipPath id="dec43eaf57"><rect x="0" width="95" y="0" height="95"/></clipPath><clipPath id="aa587d71ea"><rect x="0" width="311" y="0" height="311"/></clipPath></defs><g transform="matrix(1, 0, 0, 1, 32, 32)"><g clip-path="url(#aa587d71ea)"><g clip-path="url(#4e7be188d1)"><g clip-path="url(#567577bc5b)"><g transform="matrix(1, 0, 0, 1, 135, 54)"><g clip-path="url(#a3e3aea42b)"><g clip-path="url(#2dcb26ae19)"><g clip-path="url(#9bbb2fed2f)"><path fill="#000000" d="M 20.65625 94.390625 L 0.773438 74.507812 L 74.484375 0.800781 L 94.367188 20.683594 Z M 20.65625 94.390625 " fill-opacity="1" fill-rule="nonzero"/></g></g></g></g></g></g><g clip-path="url(#23b8d508e3)"><g clip-path="url(#30eeab0e7e)"><g transform="matrix(1, 0, 0, 1, 108, 27)"><g clip-path="url(#2047721822)"><g clip-path="url(#f1006656e6)"><g clip-path="url(#7f7e8f00bb)"><path fill="#000000" d="M 20.671875 94.402344 L 0.789062 74.519531 L 74.496094 0.8125 L 94.378906 20.695312 Z M 20.671875 94.402344 " fill-opacity="1" fill-rule="nonzero"/></g></g></g></g></g></g><g clip-path="url(#9c59fbbb23)"><g clip-path="url(#3b440671cd)"><g transform="matrix(1, 0, 0, 1, 81, 0)"><g clip-path="url(#f30e47305d)"><g clip-path="url(#54c95e67ed)"><g clip-path="url(#dc6c91e06d)"><path fill="#000000" d="M 20.683594 94.417969 L 0.800781 74.535156 L 74.507812 0.824219 L 94.390625 20.707031 Z M 20.683594 94.417969 " fill-opacity="1" fill-rule="nonzero"/></g></g></g></g></g></g><g clip-path="url(#a601c8afdb)"><g clip-path="url(#05a0ddad6a)"><g transform="matrix(1, 0, 0, 1, 135, 216)"><g clip-path="url(#b67c65f658)"><g clip-path="url(#3636996e8f)"><g clip-path="url(#faca1c2863)"><path fill="#000000" d="M 20.5 94.15625 L 0.617188 74.273438 L 74.324219 0.566406 L 94.210938 20.449219 Z M 20.5 94.15625 " fill-opacity="1" fill-rule="nonzero"/></g></g></g></g></g></g><g clip-path="url(#4df00eae3b)"><g clip-path="url(#9fe9ad1b3b)"><g transform="matrix(1, 0, 0, 1, 108, 189)"><g clip-path="url(#aa50261a61)"><g clip-path="url(#c706592d48)"><g clip-path="url(#ad43b1b440)"><path fill="#000000" d="M 20.515625 94.171875 L 0.628906 74.289062 L 74.339844 0.578125 L 94.222656 20.460938 Z M 20.515625 94.171875 " fill-opacity="1" fill-rule="nonzero"/></g></g></g></g></g></g><g clip-path="url(#05a8974511)"><g clip-path="url(#4521a9d16d)"><g transform="matrix(1, 0, 0, 1, 81, 162)"><g clip-path="url(#2170d360df)"><g clip-path="url(#144bbec6e5)"><g clip-path="url(#1aec13b51c)"><path fill="#000000" d="M 20.527344 94.183594 L 0.644531 74.300781 L 74.351562 0.59375 L 94.234375 20.476562 Z M 20.527344 94.183594 " fill-opacity="1" fill-rule="nonzero"/></g></g></g></g></g></g><g clip-path="url(#8326dc2696)"><g clip-path="url(#22fecbb9f1)"><g transform="matrix(1, 0, 0, 1, 162, 135)"><g clip-path="url(#e33d303062)"><g clip-path="url(#358c0028e3)"><g clip-path="url(#c4f44cf626)"><path fill="#000000" d="M 0.605469 20.660156 L 20.488281 0.777344 L 94.195312 74.484375 L 74.3125 94.367188 Z M 0.605469 20.660156 " fill-opacity="1" fill-rule="nonzero"/></g></g></g></g></g></g><g clip-path="url(#bac81f3507)"><g clip-path="url(#86d8c03ff7)"><g transform="matrix(1, 0, 0, 1, 189, 108)"><g clip-path="url(#fd21bb80d0)"><g clip-path="url(#b8b0d1bc42)"><g clip-path="url(#803bf09696)"><path fill="#000000" d="M 0.59375 20.671875 L 20.476562 0.789062 L 94.183594 74.5 L 74.300781 94.382812 Z M 0.59375 20.671875 " fill-opacity="1" fill-rule="nonzero"/></g></g></g></g></g></g><g clip-path="url(#7609b0a87d)"><g clip-path="url(#17dc2ba958)"><g transform="matrix(1, 0, 0, 1, 216, 81)"><g clip-path="url(#8a92d2ec74)"><g clip-path="url(#87e867308f)"><g clip-path="url(#97307bb090)"><path fill="#000000" d="M 0.582031 20.6875 L 20.464844 0.804688 L 94.171875 74.511719 L 74.289062 94.394531 Z M 0.582031 20.6875 " fill-opacity="1" fill-rule="nonzero"/></g></g></g></g></g></g><g clip-path="url(#67b9b527c2)"><g clip-path="url(#0f55a4ff32)"><g transform="matrix(1, 0, 0, 1, -0.000000000000007105, 135)"><g clip-path="url(#033c13318a)"><g clip-path="url(#44b3d9aa6d)"><g clip-path="url(#5a73634b27)"><path fill="#000000" d="M 0.839844 20.503906 L 20.722656 0.621094 L 94.429688 74.328125 L 74.546875 94.210938 Z M 0.839844 20.503906 " fill-opacity="1" fill-rule="nonzero"/></g></g></g></g></g></g><g clip-path="url(#12a0ae96d4)"><g clip-path="url(#9ca32e7338)"><g transform="matrix(1, 0, 0, 1, 27, 108)"><g clip-path="url(#dc9c39b459)"><g clip-path="url(#3fe598bf52)"><g clip-path="url(#03842c8913)"><path fill="#000000" d="M 0.828125 20.515625 L 20.710938 0.632812 L 94.417969 74.339844 L 74.535156 94.222656 Z M 0.828125 20.515625 " fill-opacity="1" fill-rule="nonzero"/></g></g></g></g></g></g><g clip-path="url(#63b478c604)"><g clip-path="url(#2dc7fe7ae2)"><g transform="matrix(1, 0, 0, 1, 54, 81)"><g clip-path="url(#dec43eaf57)"><g clip-path="url(#dd30e7b4f9)"><g clip-path="url(#df990d8069)"><path fill="#000000" d="M 0.8125 20.527344 L 20.695312 0.644531 L 94.40625 74.355469 L 74.523438 94.238281 Z M 0.8125 20.527344 " fill-opacity="1" fill-rule="nonzero"/></g></g></g></g></g></g></g></g></svg>